<?xml version="1.0" encoding="UTF-8"?>
<svg xmlns="http://www.w3.org/2000/svg" width="94" height="41" viewBox="0 0 94 41" fill="none">
  <path d="M0 0V41H10.0927V23.6768C10.0927 22.5907 10.7473 21.8305 11.7839 21.8305C12.6567 21.8305 13.2568 22.3192 14.2388 23.8397L25.0953 41H36.1153V0H26.0227V17.5404C26.0227 18.6265 25.368 19.3868 24.3315 19.3868C23.4586 19.3868 22.8585 18.898 21.8765 17.3775L11.0201 0H0Z" fill="black"></path>
  <path d="M76.3867 20.4728C76.3867 9.17749 66.8396 0 55.1648 0H38.9075V41H55.1648C66.8941 41 76.3867 31.7682 76.3867 20.4728ZM66.0212 20.4185C66.0212 26.9894 61.1658 31.7682 54.5102 31.7682H50.319C49.5906 31.7682 49.0001 31.1804 49.0001 30.4554V10.5446C49.0001 9.81957 49.5906 9.23179 50.319 9.23179H54.5102C61.1658 9.23179 66.0212 14.0106 66.0212 20.4185Z" fill="black"></path>
  <path d="M78.2531 0V41H88.3457V0H78.2531Z" fill="black"></path>
  <path fill-rule="evenodd" clip-rule="evenodd" d="M91.8257 40.6954C92.673 40.6954 93.3599 40.0102 93.3599 39.1649C93.3599 38.3197 92.673 37.6344 91.8257 37.6344C90.9784 37.6344 90.2915 38.3197 90.2915 39.1649C90.2915 40.0102 90.9784 40.6954 91.8257 40.6954ZM91.8257 40.9998C92.8415 40.9998 93.665 40.1783 93.665 39.1649C93.665 38.1516 92.8415 37.3301 91.8257 37.3301C90.8099 37.3301 89.9865 38.1516 89.9865 39.1649C89.9865 40.1783 90.8099 40.9998 91.8257 40.9998Z" fill="black"></path>
  <path d="M92.5424 38.7824C92.5424 38.476 92.2885 38.2541 91.938 38.2541H91.2972V40.0752H91.5487V39.2913L92.2474 40.0752H92.5569L92.0177 39.4818C91.9815 39.4408 91.967 39.4071 91.967 39.3709C91.967 39.3202 91.996 39.2841 92.0492 39.272L92.1386 39.2575C92.3853 39.2093 92.5424 39.0211 92.5424 38.7824ZM92.2837 38.7848C92.2837 38.9753 92.1411 39.0935 91.9186 39.0935H91.5487V38.476H91.9186C92.1411 38.476 92.2837 38.5966 92.2837 38.7848Z" fill="black"></path>
  <path fill-rule="evenodd" clip-rule="evenodd" d="M91.2464 38.2034H91.938C92.3101 38.2034 92.5933 38.4419 92.5933 38.7824C92.5933 39.0465 92.4178 39.2546 92.1484 39.3073L92.1468 39.3076L92.059 39.3218C92.0422 39.3259 92.0327 39.3327 92.0274 39.3392C92.0221 39.3457 92.0178 39.3555 92.0178 39.3709C92.0178 39.3906 92.0246 39.4128 92.0556 39.448L92.6716 40.1259H92.2246L91.5995 39.4247V40.1259H91.2464V38.2034ZM91.5487 39.2913L92.2474 40.0752H92.5569L92.0177 39.4818C91.9815 39.4408 91.967 39.4071 91.967 39.3709C91.967 39.3202 91.996 39.2841 92.0492 39.272L92.1386 39.2575C92.3853 39.2093 92.5424 39.0211 92.5424 38.7824C92.5424 38.476 92.2885 38.2541 91.938 38.2541H91.2972V40.0752H91.5487V39.2913ZM92.1518 38.9718C92.2028 38.9289 92.2329 38.8664 92.2329 38.7848C92.2329 38.7045 92.2029 38.6419 92.1517 38.5985C92.0996 38.5545 92.021 38.5267 91.9186 38.5267H91.5995V39.0428H91.9186C92.0212 39.0428 92.0998 39.0155 92.1518 38.9718ZM91.9186 39.0935C92.1411 39.0935 92.2837 38.9753 92.2837 38.7848C92.2837 38.5966 92.1411 38.476 91.9186 38.476H91.5487V39.0935H91.9186Z" fill="black"></path>
</svg>
