<svg viewBox="0 0 140.87 27.5" width="140.87" height="27.5" fill="none" xmlns="http://www.w3.org/2000/svg" role="img">
		<title>QSC logo</title>
		<path d="M134.82 0h-34.43c-.72 0-1.35.09-1.91.26-.55.16-1.04.39-1.48.67-.44.29-.82.63-1.15 1.01-.34.38-.63.81-.89 1.27-.26.46-.48.96-.67 1.49-.19.53-.35 1.09-.48 1.68-.13.59-.24 1.2-.32 1.84-.08.64-.14 1.3-.18 1.98-.04.68-.06 1.38-.06 2.1s.02 1.42.06 2.1c.04.68.1 1.34.18 1.98.08.64.19 1.25.32 1.84.13.59.29 1.15.48 1.68s.41 1.03.67 1.49c.26.46.55.89.89 1.27.34.38.72.72 1.15 1.01.44.28.93.52 1.48.68.56.16 1.19.26 1.91.26h34.43c.43 0 .77-.34.77-.77v-3.39a.77.77 0 00-.77-.77h-30.06a.77.77 0 01-.77-.77V5.7c0-.43.34-.77.77-.77h30.06c.43 0 .77-.34.77-.77V.77a.77.77 0 00-.77-.77M90.16 14.23c-.1-.45-.23-.86-.39-1.25a5.22 5.22 0 00-.58-1.07c-.22-.32-.48-.62-.77-.87-.29-.26-.62-.48-.99-.66a5.08 5.08 0 00-1.23-.41c-.46-.1-.95-.15-1.5-.15H60.06a.77.77 0 01-.77-.77V5.77c0-.43.34-.77.77-.77h29.06c.53 0 .96-.43.96-.96V.96a.96.96 0 00-.96-.96h-35.6c-.55 0-1.05.05-1.5.14-.45.1-.86.23-1.23.41-.37.18-.7.4-.99.66-.29.26-.55.55-.77.87-.22.33-.41.68-.58 1.07-.16.39-.29.81-.39 1.25-.1.45-.18.92-.23 1.42-.05.5-.07 1.03-.07 1.57 0 .55.02 1.07.07 1.57s.12.97.23 1.42c.1.45.23.86.39 1.25s.35.75.58 1.07c.22.32.48.62.77.87.29.26.62.48.99.65.37.18.78.32 1.23.41.45.09.95.15 1.5.15h24.63c.43 0 .77.34.77.77v3.46c0 .43-.34.77-.77.77H49.09a.96.96 0 00-.96.96v2.89c0 .53.43.96.96.96h35.6c.55 0 1.05-.05 1.5-.14.45-.1.86-.23 1.23-.41.37-.18.7-.4.99-.66.29-.26.55-.55.77-.87.22-.33.42-.68.58-1.07.16-.39.29-.81.39-1.25.1-.45.18-.92.23-1.42.05-.5.07-1.03.07-1.57 0-.55-.02-1.07-.07-1.57-.04-.48-.12-.96-.22-1.4M44.08 2.22c-.19-.31-.42-.58-.69-.82a4.71 4.71 0 00-.89-.62c-.33-.17-.69-.32-1.08-.43-.39-.12-.81-.2-1.25-.26-.45-.06-.93-.09-1.43-.09H6.82C6.4 0 5.78.1 5.23.27S4.2.68 3.77.97c-.43.29-.81.64-1.14 1.02-.33.39-.63.81-.88 1.28-.26.46-.48.96-.68 1.48-.19.53-.35 1.09-.49 1.67-.13.59-.24 1.2-.33 1.83-.09.63-.15 1.29-.19 1.97-.04.68-.06 1.38-.06 2.1 0 0 .02 1.42.06 2.1.04.68.1 1.34.19 1.97.09.63.2 1.24.33 1.83.14.58.3 1.14.49 1.67s.41 1.03.67 1.49c.26.45.56.88.89 1.27.33.38.71.73 1.14 1.02.43.29.91.53 1.46.7.55.17 1.17.27 1.95.27h19.18v2.47c0 .43.34.39.34.39h7.8s.36.03.36-.38v-2.48h4.23c.33 0 .8-.05 1.06-.09.45-.06.86-.14 1.25-.26.39-.11.75-.26 1.08-.43.33-.18.63-.38.89-.62s.5-.51.69-.82c.19-.31.35-.66.46-1.06.11-.4.17-.84.17-1.34V4.62c0-.5-.06-.95-.17-1.34-.1-.4-.25-.75-.44-1.06m-5.83 16.1c0 .68-.55 1.24-1.24 1.24h-2.24v-2.58c0-.28-.31-.31-.31-.31h-7.89c-.31 0-.32.34-.32.34v2.55h-14.5c-.68 0-1.24-.55-1.24-1.24V5.96c0-.68.55-1.24 1.24-1.24h25.26c.68 0 1.24.55 1.24 1.24v12.36zM139.32 2.09a.64.64 0 00.32-.32c.03-.08.05-.17.05-.27 0-.21-.06-.37-.18-.48-.12-.11-.32-.17-.58-.17h-.9V3.2h.29V2.16h.48l.66 1.04h.34l-.7-1.04c.08-.02.15-.04.22-.07m-.63-.18h-.38V1.1h.53c.07 0 .14.01.21.02.07.01.12.03.18.06.05.03.09.07.13.12.03.05.05.12.05.2 0 .1-.02.18-.06.23-.04.06-.09.1-.16.12-.07.03-.14.04-.23.05-.09.01-.18.01-.27.01m2.03-.68c-.1-.25-.25-.46-.43-.65-.18-.18-.4-.33-.64-.43-.25-.1-.51-.15-.8-.15-.29 0-.55.05-.8.15-.25.1-.46.25-.64.43s-.32.4-.43.65c-.1.25-.16.51-.16.8 0 .29.05.55.16.8.1.25.25.46.43.64s.4.32.64.43c.25.1.51.16.8.16.29 0 .55-.05.8-.16.25-.1.46-.25.64-.43s.32-.39.43-.64c.1-.24.15-.51.15-.8 0-.29-.05-.55-.15-.8m-.29 1.48c-.09.21-.21.39-.36.55-.15.16-.33.28-.54.37-.21.09-.43.14-.68.14-.25 0-.47-.05-.68-.14-.21-.09-.39-.21-.54-.37a1.87 1.87 0 01-.36-.55c-.09-.21-.13-.44-.13-.68 0-.24.04-.47.13-.68a1.692 1.692 0 011.58-1.06 1.723 1.723 0 011.22.51c.15.16.27.34.36.55.09.21.13.44.13.68 0 .24-.05.47-.13.68" fill="#8f9799"></path>
	</svg>